<?xml version="1.0" standalone="no"?>
<!DOCTYPE svg PUBLIC "-//W3C//DTD SVG 20010904//EN"
 "http://www.w3.org/TR/2001/REC-SVG-20010904/DTD/svg10.dtd">
<svg version="1.0" xmlns="http://www.w3.org/2000/svg"
 width="1462.000000pt" height="1462.000000pt" viewBox="0 0 1462.000000 1462.000000"
 preserveAspectRatio="xMidYMid meet">
<metadata>
Created by potrace 1.14, written by Peter Selinger 2001-2017
</metadata>
<g transform="translate(0.000000,1462.000000) scale(0.100000,-0.100000)"
fill="#000000" stroke="none">
<path d="M6973 13667 c-110 -56 -209 -109 -220 -118 -10 -9 -25 -19 -33 -22
-31 -14 -215 -165 -213 -175 2 -6 -16 -25 -40 -41 -23 -17 -59 -46 -81 -66
-21 -19 -42 -35 -47 -35 -4 0 -40 -31 -78 -70 -38 -38 -74 -70 -81 -70 -6 0
-32 -15 -58 -32 l-47 -33 300 -6 c322 -7 391 -16 490 -64 100 -49 196 -148
247 -253 l23 -47 3 -3015 c2 -2005 -1 -3050 -8 -3119 -6 -65 -21 -135 -39
-187 -16 -46 -27 -84 -25 -84 2 0 19 24 38 53 39 62 62 124 72 192 4 28 9 44
11 38 23 -65 28 155 8 392 -3 39 -8 102 -12 140 -3 39 -8 1226 -10 2638 -4
2547 -3 2568 16 2585 20 17 20 28 13 756 -5 479 -11 740 -17 742 -5 2 -101
-43 -212 -99z"/>
<path d="M7402 13350 c0 -19 2 -27 5 -17 2 9 2 25 0 35 -3 9 -5 1 -5 -18z"/>
<path d="M7400 13242 c0 -26 4 -41 10 -37 13 8 13 45 0 65 -7 11 -10 3 -10
-28z"/>
<path d="M7400 13128 c-7 -77 0 -168 11 -168 5 0 9 7 9 15 0 9 7 18 15 21 19
8 19 28 0 44 -9 7 -13 20 -10 28 3 8 1 20 -4 26 -5 6 -11 29 -13 51 -3 36 -4
34 -8 -17z"/>
<path d="M7397 12841 c-4 -53 -7 -201 -7 -328 l-1 -233 402 0 c221 0 400 2
397 5 -3 3 -45 7 -94 9 -73 3 -98 9 -141 31 -29 15 -71 29 -92 30 -21 1 -53
12 -69 24 -17 11 -37 21 -47 21 -20 0 -75 28 -75 38 0 4 -14 15 -30 24 -17 9
-30 24 -30 33 0 8 -11 20 -25 25 -15 6 -25 17 -25 30 0 11 -4 20 -9 20 -5 0
-16 16 -25 35 -9 19 -20 35 -24 35 -10 0 -32 50 -32 71 0 10 -8 22 -17 28 -17
9 -16 11 1 30 19 21 19 22 -2 44 -12 13 -19 26 -16 30 4 4 1 13 -6 22 -8 10
-9 19 -3 28 7 8 4 17 -7 28 -16 15 -18 10 -23 -80z"/>
<path d="M1310 12810 c-75 -17 -216 -68 -298 -106 -52 -24 -97 -44 -100 -44
-3 0 -20 -13 -36 -30 -54 -51 -149 -130 -158 -130 -4 0 -8 -7 -8 -15 0 -8 -4
-15 -10 -15 -5 0 -10 -5 -10 -10 0 -6 -15 -24 -34 -40 -31 -28 -86 -124 -86
-153 0 -6 -12 -23 -25 -36 -14 -13 -25 -34 -25 -47 0 -14 -11 -42 -25 -64 -14
-23 -28 -54 -32 -70 -3 -17 -10 -33 -14 -36 -5 -3 -9 -22 -9 -43 0 -22 -6 -44
-15 -51 -8 -7 -20 -31 -25 -54 -12 -44 -50 -127 -63 -137 -15 -11 -25 -77 -14
-88 8 -8 6 -11 -7 -11 -13 0 -16 -5 -11 -19 4 -14 0 -21 -17 -26 l-22 -8 23
-18 c14 -12 21 -25 17 -35 -7 -19 -41 -14 -41 6 0 10 -12 16 -33 18 -17 2 -32
7 -32 13 0 5 -7 9 -15 9 -10 0 -15 10 -15 29 0 16 -5 31 -12 33 -8 3 -13 34
-15 89 -2 86 12 310 23 354 4 15 2 25 -5 25 -6 0 -11 -19 -11 -45 0 -24 -5
-54 -10 -67 -12 -28 -27 -195 -42 -478 -18 -318 -18 -6202 0 -6655 16 -429 42
-629 98 -753 13 -29 24 -57 24 -61 0 -27 89 -116 169 -170 50 -34 93 -61 95
-61 6 0 206 -114 278 -158 37 -23 95 -55 129 -73 35 -17 97 -53 140 -80 77
-48 234 -128 739 -378 146 -72 360 -180 475 -241 227 -119 658 -333 795 -395
47 -22 315 -154 595 -296 477 -240 610 -308 810 -414 44 -23 139 -73 210 -110
72 -37 135 -71 140 -75 39 -30 603 -312 880 -440 33 -15 128 -60 210 -100 83
-39 179 -83 213 -96 35 -13 89 -37 120 -53 32 -16 122 -61 202 -100 162 -79
228 -114 459 -246 167 -94 349 -180 491 -230 103 -37 117 -41 185 -60 33 -9
71 -21 85 -25 82 -28 439 -96 620 -119 203 -26 664 -54 1160 -71 603 -20 727
-22 1455 -23 767 -1 863 2 1160 43 118 17 369 70 420 90 11 4 79 26 150 50
139 46 184 64 340 141 205 101 384 219 565 374 53 46 291 285 328 330 50 62
72 88 92 112 10 12 27 34 37 50 9 15 20 30 24 33 3 3 18 23 32 45 15 22 38 57
52 78 26 37 32 48 94 160 40 71 36 100 -4 31 -85 -148 -197 -304 -275 -383
-14 -14 -47 -53 -72 -86 -87 -114 -267 -271 -381 -334 -46 -25 -89 -58 -111
-86 -45 -54 -128 -119 -218 -169 -88 -49 -323 -145 -373 -153 -22 -3 -45 -9
-51 -14 -6 -5 -35 -13 -65 -19 -30 -6 -65 -15 -79 -20 -14 -5 -41 -12 -60 -15
-19 -3 -51 -8 -70 -13 -51 -11 -66 -9 -88 11 -11 10 -26 20 -34 21 -29 6 -48
19 -48 32 0 8 5 14 11 14 5 0 7 4 4 10 -3 5 -1 18 5 29 5 11 12 80 15 153 4
73 10 158 15 188 4 30 9 73 9 95 0 25 7 44 18 52 9 7 15 14 12 16 -112 84
-324 215 -1300 800 l-897 537 -1381 0 -1381 0 0 -560 c0 -527 -1 -560 -17
-560 -44 1 -43 -1 -49 416 -3 219 -9 533 -14 696 -5 163 -9 388 -9 500 -1 217
-17 1115 -26 1438 -9 341 -25 1129 -33 1600 -7 390 -9 282 -11 -765 -1 -671
-4 -1373 -7 -1560 -2 -187 -4 -535 -4 -773 l0 -434 -937 4 c-516 2 -944 6
-952 9 -27 8 -20 -17 16 -62 21 -25 54 -65 73 -89 41 -51 89 -109 108 -128 18
-19 36 -56 24 -48 -6 3 -70 79 -143 169 -73 89 -146 178 -163 198 -17 19 -44
53 -61 74 -16 22 -42 53 -56 70 -14 16 -47 59 -74 95 -27 36 -60 76 -73 90
-13 14 -39 47 -58 75 -18 27 -61 79 -94 115 -33 36 -58 71 -55 78 2 6 -1 12
-8 12 -7 0 -21 13 -30 30 -10 17 -25 30 -33 30 -8 0 -14 7 -14 15 0 8 -18 24
-40 35 -22 11 -40 26 -40 34 0 7 -16 24 -35 37 -19 13 -35 30 -35 37 0 6 -6
12 -13 12 -7 0 -35 23 -62 50 -27 28 -55 50 -62 50 -7 0 -13 5 -13 11 0 14
-25 39 -39 39 -6 0 -35 24 -64 53 -67 66 -123 115 -167 147 -19 13 -43 34 -53
47 -10 13 -23 23 -28 23 -12 0 -94 58 -179 125 -36 28 -76 58 -90 65 -14 7
-43 28 -64 47 -22 18 -44 33 -48 33 -5 0 -24 11 -42 25 -18 14 -43 25 -54 25
-12 0 -30 8 -40 17 -49 49 -228 147 -317 174 -84 26 -178 49 -202 49 -16 0
-42 9 -60 20 -30 18 -122 48 -258 83 -61 16 -197 33 -340 43 -44 2 -116 9
-160 14 -44 6 -120 11 -170 11 l-90 1 85 14 c47 8 122 13 167 12 l83 -3 2 195
c2 176 0 195 -15 198 -16 3 -17 54 -19 665 l-3 662 -285 5 c-312 6 -313 6
-436 75 -116 65 -216 201 -249 341 -12 50 -14 510 -15 3083 0 2216 3 3034 11
3060 31 97 45 130 76 180 19 29 33 54 31 55 -2 1 -14 0 -28 -4z m7080 -12180
c13 7 21 7 25 0 4 -6 11 -8 16 -5 5 3 25 -2 45 -11 20 -9 54 -16 76 -16 23 1
47 -3 54 -9 10 -8 22 -8 46 0 41 14 53 14 53 1 0 -5 3 -10 8 -10 4 0 13 0 20
0 7 0 23 9 35 20 26 25 31 25 25 1 -4 -15 2 -20 29 -24 18 -2 39 0 47 7 8 6
24 9 37 8 13 -2 24 1 24 7 0 6 6 8 14 5 8 -3 17 0 21 6 5 8 17 2 39 -18 17
-17 47 -33 66 -37 30 -5 39 -2 59 19 28 30 41 33 41 10 0 -8 -4 -12 -10 -9 -5
3 -10 1 -10 -5 0 -7 7 -10 15 -6 9 3 19 -3 26 -15 7 -14 14 -17 22 -11 7 5 42
10 79 11 56 1 70 -2 86 -19 14 -15 34 -21 68 -23 27 -1 53 -6 57 -12 6 -6 10
-6 14 3 2 6 11 12 19 12 8 0 14 5 14 11 0 5 4 8 10 4 5 -3 6 -13 3 -21 -3 -9
0 -20 8 -25 21 -13 32 -11 25 6 -4 11 2 15 20 15 23 0 25 -3 20 -25 -5 -18 -2
-25 9 -25 8 0 15 -4 15 -10 0 -18 22 -11 45 15 20 21 25 22 35 10 18 -21 32
-18 25 5 -5 15 -3 18 9 14 10 -4 16 -1 16 7 0 10 2 11 8 3 4 -7 18 -14 32 -16
19 -2 24 -8 22 -26 -1 -15 2 -22 10 -19 7 2 12 13 10 23 -2 14 0 16 6 6 5 -8
18 -12 28 -10 15 2 19 -3 19 -28 1 -17 8 -39 17 -48 10 -9 14 -24 11 -33 -4
-11 -2 -14 8 -11 8 3 13 14 11 24 -2 16 -1 16 7 4 9 -12 14 -13 30 -3 11 7 27
10 36 7 11 -5 15 1 15 22 l0 29 13 -24 c14 -29 37 -39 37 -17 0 9 -4 16 -10
16 -5 0 -10 5 -10 11 0 13 47 4 67 -13 15 -12 -5 -38 -24 -31 -7 3 -13 0 -13
-5 0 -17 -34 -19 -47 -2 -11 13 -13 12 -19 -7 -7 -26 -15 -28 -32 -11 -9 9
-19 3 -42 -23 -36 -42 -37 -49 -5 -49 27 0 32 -9 13 -28 -16 -16 -45 -15 -51
1 -3 9 -7 9 -20 -2 -16 -12 -68 -18 -247 -24 -36 -1 -71 -6 -79 -11 -8 -5 -16
-5 -20 1 -3 5 -52 7 -116 3 -60 -3 -144 -4 -185 -2 -41 2 -134 3 -206 2 -90
-1 -134 2 -139 9 -4 8 -11 9 -19 2 -9 -8 -118 -13 -221 -10 -11 0 -123 -1
-250 -4 -168 -3 -243 -1 -280 9 -27 7 -54 9 -58 5 -4 -4 -29 -4 -55 0 -26 4
-71 8 -100 8 -29 1 -60 5 -70 10 -9 5 -53 17 -97 26 -44 9 -88 20 -97 26 -10
5 -25 9 -33 9 -8 0 -15 7 -15 16 0 11 -6 14 -20 9 -14 -5 -20 -2 -20 9 0 9 -7
16 -15 16 -10 0 -15 10 -15 30 0 28 3 30 38 31 20 1 42 1 49 0 7 -1 11 16 11
46 0 26 5 49 11 51 6 2 11 10 11 18 0 8 4 14 10 14 5 0 7 -7 3 -16 -4 -12 -2
-15 8 -10 8 3 22 9 32 12 19 7 23 29 6 40 -16 9 10 24 44 24 15 0 27 5 27 10
0 6 16 10 35 10 19 0 35 5 35 10 0 13 37 13 45 0 5 -8 11 -7 21 1 12 9 19 8
37 -8 27 -25 117 -38 117 -17 0 15 35 19 44 6 3 -5 20 -9 38 -8 28 1 33 5 32
24 0 18 3 21 20 16 12 -4 24 -12 28 -17 4 -8 14 -5 27 7 12 11 27 15 40 11 16
-5 21 -2 21 12 1 17 1 17 11 0 8 -13 14 -15 29 -7z m1640 -209 c0 -14 -5 -18
-20 -14 -25 7 -26 20 -2 26 9 3 18 5 20 6 1 0 2 -8 2 -18z m-2530 -73 c0 -4
-9 -8 -20 -8 -11 0 -20 4 -20 8 0 4 9 8 20 8 11 0 20 -4 20 -8z m2677 -24 c-3
-3 -12 -4 -19 -1 -8 3 -5 6 6 6 11 1 17 -2 13 -5z m-93 -85 c-11 -12 -29 -18
-48 -18 -31 2 -31 2 -3 6 15 3 33 13 39 23 7 10 16 16 21 13 4 -3 1 -14 -9
-24z"/>
<path d="M8940 580 c0 -5 9 -10 20 -10 11 0 20 5 20 10 0 6 -9 10 -20 10 -11
0 -20 -4 -20 -10z"/>
<path d="M7770 557 c0 -21 12 -28 27 -16 19 16 16 29 -7 29 -11 0 -20 -6 -20
-13z"/>
<path d="M7726 501 c-4 -5 -2 -12 3 -15 5 -4 12 -2 15 3 4 5 2 12 -3 15 -5 4
-12 2 -15 -3z"/>
<path d="M9780 460 c0 -5 4 -10 9 -10 6 0 13 5 16 10 3 6 -1 10 -9 10 -9 0
-16 -4 -16 -10z"/>
<path d="M9630 430 c0 -5 5 -10 10 -10 6 0 10 5 10 10 0 6 -4 10 -10 10 -5 0
-10 -4 -10 -10z"/>
<path d="M9835 410 c3 -5 10 -10 16 -10 5 0 9 5 9 10 0 6 -7 10 -16 10 -8 0
-12 -4 -9 -10z"/>
<path d="M7590 380 c0 -5 5 -10 10 -10 6 0 10 5 10 10 0 6 -4 10 -10 10 -5 0
-10 -4 -10 -10z"/>
<path d="M9918 323 c7 -3 16 -2 19 1 4 3 -2 6 -13 5 -11 0 -14 -3 -6 -6z"/>
<path d="M9885 261 c-3 -5 -1 -12 5 -16 5 -3 10 1 10 9 0 18 -6 21 -15 7z"/>
<path d="M221 12384 c0 -11 3 -14 6 -6 3 7 2 16 -1 19 -3 4 -6 -2 -5 -13z"/>
<path d="M202 12315 c0 -16 2 -22 5 -12 2 9 2 23 0 30 -3 6 -5 -1 -5 -18z"/>
<path d="M191 12244 c0 -11 3 -14 6 -6 3 7 2 16 -1 19 -3 4 -6 -2 -5 -13z"/>
<path d="M173 12155 c0 -22 2 -30 4 -17 2 12 2 30 0 40 -3 9 -5 -1 -4 -23z"/>
<path d="M3877 11721 c-4 -17 -3 -21 5 -13 5 5 8 16 6 23 -3 8 -7 3 -11 -10z"/>
<path d="M4405 11558 c-15 -17 -37 -55 -50 -84 -12 -28 -39 -85 -58 -125 -20
-41 -57 -119 -83 -174 -25 -55 -72 -154 -104 -220 -32 -66 -97 -203 -145 -305
-47 -102 -97 -207 -110 -235 -13 -27 -39 -84 -58 -125 -19 -41 -59 -127 -90
-190 -30 -63 -73 -155 -97 -205 -23 -49 -64 -136 -91 -192 -27 -57 -49 -104
-49 -106 0 -6 -167 -356 -187 -392 -21 -39 -17 -31 -117 -238 -47 -97 -86
-182 -86 -187 0 -6 -11 -28 -25 -50 -14 -22 -25 -42 -25 -46 0 -6 -19 -46
-141 -299 -31 -66 -79 -165 -104 -220 -26 -55 -69 -146 -96 -201 -27 -56 -49
-107 -49 -114 0 -7 -12 -34 -28 -59 -15 -25 -45 -81 -66 -125 -33 -68 -43 -80
-80 -96 -40 -18 -43 -18 -106 0 -104 29 -153 54 -207 107 -79 77 -79 84 39
342 55 119 113 245 130 281 17 36 73 157 125 270 52 113 105 228 118 255 12
28 36 79 53 115 16 36 82 180 147 320 64 140 134 291 154 335 63 132 89 188
109 235 11 25 63 140 116 255 54 116 104 224 111 240 7 17 35 75 61 130 68
146 239 522 296 655 28 63 66 148 85 189 44 95 54 121 45 121 -8 0 -42 -73
-42 -90 0 -6 -3 -10 -8 -10 -4 0 -13 -15 -21 -32 -20 -49 -108 -238 -198 -428
-106 -223 -163 -350 -163 -361 0 -5 -4 -9 -10 -9 -5 0 -10 -5 -10 -11 0 -10
-23 -64 -85 -194 -78 -164 -115 -246 -115 -255 0 -6 -4 -10 -10 -10 -5 0 -10
-6 -10 -13 0 -7 -11 -37 -25 -65 -14 -29 -25 -56 -25 -62 0 -5 -4 -10 -10 -10
-5 0 -10 -5 -10 -11 0 -11 -24 -66 -75 -174 -31 -65 -57 -122 -115 -250 -12
-27 -42 -92 -66 -142 -140 -296 -141 -299 -204 -438 -12 -27 -42 -91 -66 -141
-24 -50 -44 -96 -44 -102 0 -7 -4 -12 -10 -12 -5 0 -10 -7 -10 -15 0 -8 -11
-36 -24 -63 -30 -59 -75 -156 -116 -247 -17 -38 -42 -92 -55 -120 -88 -188
-105 -226 -105 -235 0 -6 -4 -10 -10 -10 -5 0 -10 -7 -10 -16 0 -8 -10 -34
-23 -57 -54 -97 -60 -194 -17 -282 31 -65 82 -112 156 -147 113 -53 227 -37
319 43 28 24 54 68 96 154 111 235 142 301 176 375 33 71 49 105 131 280 19
41 74 156 123 256 l88 181 313 6 c172 4 551 10 841 14 l528 6 67 -31 c109 -50
139 -62 154 -62 14 0 101 -53 126 -77 7 -7 21 -18 30 -25 15 -12 36 -47 93
-158 20 -39 144 -301 229 -485 158 -342 192 -407 235 -450 63 -63 106 -80 205
-80 73 0 92 4 137 28 73 38 114 77 148 139 26 47 29 63 29 133 0 58 -6 92 -21
125 -11 25 -30 68 -43 95 -12 28 -46 100 -75 160 -29 61 -64 135 -78 165 -48
105 -99 215 -142 305 -24 50 -57 122 -75 160 -37 82 -70 151 -135 290 -108
229 -134 282 -155 330 -12 28 -46 100 -75 160 -29 61 -64 135 -78 166 -48 105
-109 234 -133 280 -13 26 -24 54 -24 63 0 9 -3 16 -8 16 -8 0 -42 73 -42 90 0
6 -4 10 -10 10 -5 0 -10 6 -10 14 0 8 -7 27 -15 43 -8 15 -37 77 -66 136 -28
60 -53 106 -57 103 -3 -4 11 -48 31 -99 64 -163 123 -309 181 -447 31 -74 79
-193 107 -265 28 -71 55 -138 60 -147 5 -10 9 -23 9 -30 0 -6 25 -35 55 -64
l55 -53 0 -72 c0 -59 -5 -80 -25 -114 -43 -74 -101 -80 -191 -19 l-37 26 -121
-12 c-67 -6 -137 -13 -156 -14 -100 -9 -179 -19 -210 -26 -19 -5 -83 -11 -142
-15 -59 -3 -120 -8 -135 -10 -15 -2 -64 -6 -108 -9 -44 -4 -127 -11 -185 -16
-351 -32 -527 -13 -566 61 -32 63 -4 126 78 178 62 38 120 59 238 82 57 11
106 22 109 24 2 3 -140 5 -317 5 -176 0 -323 3 -326 8 -2 4 10 39 28 77 18 39
42 90 54 115 11 25 42 92 70 150 27 58 60 128 72 155 12 28 39 86 60 130 21
44 48 103 60 130 99 219 275 571 295 591 17 18 35 18 35 1 0 -17 49 -115 61
-123 5 -3 7 -9 4 -14 -6 -9 59 -125 75 -135 6 -3 10 -14 10 -25 0 -10 16 -41
35 -70 19 -29 35 -58 35 -66 0 -8 4 -14 9 -14 5 0 14 -15 21 -32 13 -37 14
-39 55 -99 16 -24 34 -58 41 -75 10 -29 31 -66 92 -160 12 -19 22 -41 22 -48
0 -8 7 -20 16 -27 21 -17 54 -93 54 -124 0 -12 7 -28 15 -35 11 -9 14 -37 14
-128 -1 -65 4 -129 10 -144 l11 -28 177 1 c227 1 369 11 384 26 9 9 1 23 -33
60 -60 65 -118 138 -118 148 0 5 -6 16 -14 24 -7 9 -26 39 -41 66 -15 28 -35
59 -45 70 -9 11 -31 45 -47 75 -17 30 -44 78 -60 105 -76 125 -154 279 -263
520 -40 90 -137 343 -155 405 -18 65 -98 321 -115 368 -18 49 -19 56 -4 100 9
26 25 67 36 92 48 105 58 133 58 161 0 37 -12 37 -45 -3z m1289 -2920 c7 -12
6 -21 -3 -32 -12 -15 -15 -14 -27 10 -22 41 5 61 30 22z m49 -108 c9 -22 17
-45 17 -51 0 -6 9 -23 21 -37 45 -59 66 -100 73 -142 4 -25 14 -52 23 -62 15
-17 15 -18 -1 -18 -13 0 -15 -6 -10 -25 3 -14 2 -25 -4 -25 -18 0 -35 31 -36
66 -1 25 -10 42 -34 63 -18 17 -32 36 -32 43 0 8 -9 31 -20 53 -21 41 -50 133
-50 159 0 32 35 16 53 -24z m166 -356 c6 -14 9 -30 6 -35 -8 -12 -45 -12 -45
1 0 6 8 10 17 10 13 0 14 3 5 12 -14 14 -16 38 -4 38 5 0 14 -12 21 -26z"/>
<path d="M3781 11513 c0 -12 -5 -23 -10 -25 -5 -1 -12 -16 -16 -33 -6 -28 -5
-28 15 8 12 21 19 46 17 55 -3 12 -5 11 -6 -5z"/>
<path d="M5011 10414 c0 -11 3 -14 6 -6 3 7 2 16 -1 19 -3 4 -6 -2 -5 -13z"/>
<path d="M12291 9586 l-1 -359 47 7 c25 3 47 7 49 9 7 7 -21 114 -33 129 -8 9
-12 25 -9 36 4 10 1 52 -5 93 -7 41 -13 92 -15 114 -12 175 -16 217 -23 270
-6 39 -9 -66 -10 -299z"/>
<path d="M7405 8748 c-13 -73 -20 -2106 -15 -4133 4 -1627 7 -1945 19 -1970 8
-16 24 -54 38 -83 13 -29 35 -65 49 -80 30 -31 30 -31 -14 63 -65 138 -61 -99
-63 3218 -2 1665 -4 3027 -5 3027 -1 0 -5 -19 -9 -42z"/>
<path d="M9775 7672 c-59 -40 -83 -168 -46 -244 11 -23 73 -97 136 -163 110
-114 119 -128 116 -166 -3 -30 105 -46 252 -37 70 4 132 10 137 13 5 3 -29 38
-78 77 -84 70 -159 134 -306 267 -38 35 -88 75 -111 89 -67 42 -76 58 -87 149
-2 13 -7 20 -13 15z"/>
<path d="M13366 7553 c-3 -8 -6 -1082 -6 -2386 0 -2320 -3 -2532 -31 -2562 -5
-5 -9 -17 -9 -26 0 -10 -3 -19 -7 -21 -5 -1 -17 -21 -28 -43 -26 -51 -128
-154 -186 -188 -111 -65 -139 -70 -449 -76 l-285 -6 0 -315 c0 -370 6 -815 12
-881 5 -43 8 -48 48 -69 24 -12 48 -19 55 -15 12 7 160 18 225 16 40 -2 94
-15 128 -33 14 -7 23 -4 38 13 10 12 25 19 34 15 8 -3 15 -1 15 5 0 5 10 13
23 18 16 7 27 4 40 -10 10 -11 24 -19 32 -19 20 0 29 20 16 33 -18 18 -13 27
19 27 24 0 31 5 36 27 4 15 18 36 32 48 17 15 25 33 27 65 3 31 10 50 25 62
17 14 19 21 11 37 -14 26 -3 81 17 81 11 0 13 7 8 30 -3 17 -1 41 4 55 6 17 6
33 -1 49 -13 27 4 71 23 60 7 -5 9 0 5 15 -4 17 -2 21 9 17 17 -7 18 6 2 22
-9 9 -8 15 7 25 13 10 16 21 11 41 -8 32 2 55 15 35 6 -10 9 -7 10 11 3 71 6
87 17 107 7 12 12 31 12 43 0 11 7 23 15 26 8 4 15 15 15 25 0 10 4 19 9 19
16 0 24 42 11 50 -16 10 -6 38 29 79 17 20 27 41 24 52 -4 14 0 19 15 19 26 0
38 18 23 33 -15 15 -14 30 2 24 19 -7 29 2 51 45 20 37 64 57 77 36 4 -7 9 -7
13 0 3 5 -1 15 -9 22 -21 18 -19 25 18 67 36 41 44 96 17 113 -12 7 -12 12 -2
22 6 6 12 21 12 33 0 11 7 31 16 43 8 12 14 30 12 40 -1 9 2 23 7 31 5 10 4
16 -3 19 -20 6 -13 32 11 42 12 5 16 9 10 9 -18 1 -16 28 2 35 8 3 12 12 9 20
-3 8 -1 17 5 20 6 4 8 13 4 21 -3 8 0 15 6 15 14 0 15 37 1 45 -5 3 -10 17
-10 31 0 13 5 24 10 24 6 0 10 5 10 11 0 5 -4 7 -10 4 -5 -3 -10 1 -10 10 0 9
5 13 10 10 6 -3 10 1 10 9 0 9 -5 16 -11 16 -7 0 -8 7 -4 18 3 9 8 42 11 72 2
30 7 65 9 78 4 15 1 22 -10 22 -8 0 -15 5 -15 10 0 6 5 10 10 10 6 0 10 5 10
11 0 5 -5 7 -10 4 -12 -7 -40 12 -40 26 0 5 12 14 26 22 22 12 24 16 12 28 -8
9 -13 37 -13 76 0 35 -3 63 -7 63 -5 0 -8 14 -8 31 0 30 14 52 37 60 9 3 9 8
2 19 -8 11 -12 12 -16 3 -10 -27 -20 -11 -20 35 0 26 2 41 5 35 2 -7 12 -13
23 -13 16 0 18 5 12 33 -3 17 -10 35 -15 38 -5 3 -6 17 -3 31 4 14 2 29 -4 32
-6 4 -5 16 4 33 12 22 12 29 -1 47 -18 27 -18 50 1 43 8 -4 17 -2 20 3 4 6 1
10 -5 10 -7 0 -9 8 -5 20 5 14 2 20 -9 20 -19 0 -21 14 -3 29 10 8 17 7 25 -1
9 -9 12 -6 12 14 0 18 -5 25 -17 24 -25 -2 -37 65 -19 117 13 38 12 44 -10 85
-29 53 -28 52 -7 52 14 0 14 2 -3 21 -15 17 -16 23 -6 40 19 30 24 99 7 105
-10 4 -13 26 -12 80 0 52 -3 78 -12 83 -10 7 -10 14 2 37 8 16 17 42 21 58 6
23 4 27 -8 23 -18 -7 -19 -2 -6 28 5 13 2 26 -8 38 -10 11 -12 21 -7 25 13 9
18 104 6 112 -22 13 -32 151 -12 158 8 3 6 8 -5 16 -11 9 -14 18 -9 27 13 20
14 52 3 66 -5 7 -7 21 -3 33 4 12 2 20 -6 20 -7 0 -9 10 -5 30 3 17 1 30 -3
30 -17 0 -24 62 -10 71 11 7 12 11 1 17 -9 6 -10 16 -4 33 5 13 7 41 4 61 -2
21 1 52 7 69 7 22 8 36 1 44 -6 7 -8 20 -4 29 3 9 1 16 -5 16 -6 0 -11 7 -11
15 0 8 4 15 9 15 15 0 7 54 -11 74 -21 23 -22 32 -8 41 6 4 8 11 4 16 -5 9
-15 143 -16 232 0 25 -5 37 -14 37 -19 0 -18 24 1 40 16 13 21 35 6 25 -5 -3
-12 -1 -15 4 -4 5 -2 13 4 16 8 5 7 12 -2 23 -10 12 -10 16 0 19 6 3 12 13 12
24 0 20 -33 83 -58 112 -12 13 -13 20 -4 29 7 7 12 27 12 45 0 18 5 33 10 33
6 0 10 -6 10 -12 0 -9 4 -8 10 2 14 21 12 28 -9 47 -15 13 -17 20 -8 34 8 13
8 24 1 41 -27 58 -37 97 -39 146 -2 42 0 52 11 48 8 -3 14 -1 14 4 0 6 -4 10
-9 10 -13 0 -11 81 2 97 6 9 3 18 -12 30 -12 10 -28 43 -36 73 -12 48 -12 56
1 66 19 15 18 24 -5 24 -23 0 -36 16 -21 25 5 3 10 17 10 30 0 13 6 25 13 28
10 4 10 7 0 18 -7 7 -13 24 -13 37 0 13 -4 21 -10 17 -32 -20 -46 48 -25 115
4 11 2 20 -4 20 -15 0 -14 53 1 68 9 9 9 12 0 12 -7 0 -12 9 -12 20 0 11 -6
19 -12 18 -14 -3 -14 -2 -4 54 4 21 2 39 -4 43 -14 9 -13 23 3 27 9 2 8 7 -4
20 -15 14 -18 14 -23 1z m304 -2723 c0 -5 -2 -10 -4 -10 -3 0 -8 5 -11 10 -3
6 -1 10 4 10 6 0 11 -4 11 -10z"/>
<path d="M8769 6967 c-34 -34 -49 -88 -49 -174 0 -96 35 -166 104 -208 l49
-30 1026 -8 c564 -5 1028 -10 1030 -12 1 -2 -11 -21 -28 -42 -38 -48 -61 -112
-61 -172 0 -26 -9 -71 -20 -101 -12 -30 -24 -64 -27 -75 -31 -98 -251 -470
-350 -591 -18 -23 -33 -45 -33 -51 0 -13 343 -363 356 -363 40 1 303 398 429
649 119 238 239 529 280 676 l22 80 254 5 c236 5 257 7 294 27 47 25 76 55 99
102 18 38 23 129 5 99 -5 -10 -29 -28 -52 -41 l-42 -23 -1370 7 c-1240 5
-1649 13 -1761 35 -28 5 -91 66 -105 101 -6 15 -14 52 -18 82 l-6 53 -26 -25z
m2445 -713 c33 -32 14 -184 -29 -234 -7 -8 -46 -81 -87 -161 -97 -189 -250
-406 -302 -430 -12 -6 -34 -17 -49 -25 -43 -24 -84 -4 -89 42 -2 20 -1 37 3
40 4 2 10 16 14 31 6 26 73 155 150 288 19 33 51 94 71 135 20 41 50 103 67
137 38 80 128 180 165 186 55 8 71 7 86 -9z"/>
<path d="M7195 6470 c3 -5 8 -10 11 -10 2 0 4 5 4 10 0 6 -5 10 -11 10 -5 0
-7 -4 -4 -10z"/>
<path d="M9770 6180 c0 -5 -9 -10 -20 -10 -25 0 -98 -45 -126 -78 -12 -13 -27
-48 -33 -77 -11 -47 -10 -60 9 -116 57 -169 225 -464 382 -671 32 -42 58 -81
58 -86 0 -11 -53 -56 -190 -158 -253 -189 -537 -341 -865 -463 -77 -29 -151
-57 -164 -64 -44 -21 -99 -85 -115 -134 -21 -61 -20 -87 4 -164 50 -164 173
-216 362 -154 313 102 710 300 1043 521 152 100 176 117 246 182 50 45 69 51
90 26 17 -21 239 -181 343 -249 245 -158 486 -279 791 -399 282 -112 384 -138
451 -116 90 29 140 97 150 205 l6 60 -21 -29 c-29 -44 -89 -76 -138 -76 -23 0
-81 14 -130 31 -48 16 -106 36 -128 43 -208 68 -599 269 -853 438 -108 71
-311 223 -372 277 -154 138 -377 381 -468 509 -51 73 -146 212 -157 230 -19
32 -121 217 -141 255 -10 21 -34 52 -51 69 -27 26 -33 40 -33 74 0 51 25 84
85 114 38 18 38 19 13 20 -16 0 -28 -4 -28 -10z"/>
<path d="M4448 5998 c-16 -7 -28 -15 -28 -20 0 -4 -4 -8 -9 -8 -5 0 -66 -35
-135 -77 -69 -43 -165 -102 -213 -130 -49 -29 -137 -82 -196 -118 -60 -36
-111 -65 -113 -65 -2 0 -41 -22 -85 -50 -44 -27 -82 -50 -84 -50 -2 0 -32 -17
-67 -38 -56 -34 -181 -109 -229 -137 -10 -5 -44 -25 -76 -44 -32 -19 -71 -42
-88 -51 -16 -9 -60 -36 -98 -58 -37 -23 -69 -42 -72 -42 -3 0 -155 -92 -215
-131 -8 -5 -22 -12 -30 -16 -8 -4 -44 -25 -80 -48 -36 -23 -70 -44 -76 -46
-41 -15 -174 -107 -174 -119 1 -12 3 -12 13 2 11 14 20 15 55 6 35 -9 44 -8
58 7 22 21 63 37 76 29 5 -3 28 2 50 12 31 14 44 15 58 7 24 -16 60 10 60 42
0 32 17 41 39 21 17 -15 19 -15 24 -1 4 8 2 15 -4 15 -6 0 -8 4 -4 10 3 5 12
7 20 3 9 -3 15 1 15 10 0 13 21 28 42 31 3 1 9 4 13 8 4 4 13 4 21 1 8 -3 14
0 14 6 0 6 7 8 16 4 10 -4 20 0 26 10 5 10 15 17 23 17 7 0 23 12 34 26 11 14
26 24 33 22 7 -3 18 2 24 10 6 8 22 16 35 17 13 1 24 8 24 16 0 8 9 14 20 14
14 0 21 8 23 28 2 16 11 30 20 33 9 3 25 10 35 15 11 6 21 8 24 5 9 -8 43 13
43 27 0 7 14 21 30 30 17 10 30 26 30 35 1 13 4 11 14 -7 l13 -24 14 32 c12
28 31 38 63 32 5 -1 15 8 24 20 8 11 30 27 48 35 19 8 34 20 34 28 0 8 15 17
35 20 25 5 39 14 45 31 10 25 43 49 54 38 4 -4 9 3 13 15 4 17 10 21 28 16 16
-4 30 1 43 14 11 11 28 25 38 31 17 9 17 12 4 21 -12 7 -8 10 17 10 22 0 38 8
52 26 11 14 30 26 42 27 12 1 24 10 27 19 3 12 8 15 16 9 13 -11 51 13 42 27
-3 6 16 16 44 23 37 9 50 17 50 31 0 14 5 17 24 12 24 -6 44 10 26 21 -5 3
-10 11 -10 17 0 6 6 6 15 -2 13 -11 23 -9 58 6 23 10 46 24 50 31 4 7 15 13
22 13 8 0 15 5 15 11 0 7 10 9 24 5 19 -5 26 -1 31 14 7 22 20 26 30 10 5 -8
11 -8 20 0 10 8 14 7 18 -2 4 -8 6 -7 6 5 1 12 9 17 31 17 17 0 46 7 66 15 19
8 38 15 42 15 4 1 12 5 17 10 12 10 65 8 82 -3 9 -6 11 -3 6 9 -5 14 -2 16 20
12 15 -3 27 -2 27 2 0 5 17 8 38 8 140 1 236 9 240 20 3 9 -31 12 -140 12 -78
0 -204 2 -278 5 -88 2 -145 0 -162 -7z m-671 -474 c-3 -3 -12 -4 -19 -1 -8 3
-5 6 6 6 11 1 17 -2 13 -5z m-1057 -688 c0 -3 -4 -8 -10 -11 -5 -3 -10 -1 -10
4 0 6 5 11 10 11 6 0 10 -2 10 -4z"/>
<path d="M5050 5992 c0 -16 11 -19 55 -12 24 4 48 3 53 -2 5 -5 21 -4 36 2 15
5 31 8 36 5 5 -3 11 -1 15 5 4 6 -29 10 -94 10 -56 0 -101 -4 -101 -8z"/>
<path d="M5260 5996 c0 -9 30 -14 35 -6 4 6 -3 10 -14 10 -12 0 -21 -2 -21 -4z"/>
<path d="M5329 5991 c8 -5 34 -8 58 -6 23 1 43 -2 43 -7 0 -10 39 -1 55 13 5
5 -28 9 -80 9 -57 0 -85 -4 -76 -9z"/>
<path d="M5532 5989 c2 -7 10 -15 17 -17 8 -3 12 1 9 9 -2 7 -10 15 -17 17 -8
3 -12 -1 -9 -9z"/>
<path d="M5618 5993 c12 -2 32 -2 45 0 12 2 2 4 -23 4 -25 0 -35 -2 -22 -4z"/>
<path d="M5735 5990 c6 -10 92 -7 102 4 4 3 -19 6 -51 6 -34 0 -55 -4 -51 -10z"/>
<path d="M5920 5984 c0 -10 4 -12 13 -7 6 4 23 9 37 11 41 5 36 12 -8 12 -31
0 -42 -4 -42 -16z"/>
<path d="M6120 5990 c0 -13 11 -13 30 0 12 8 11 10 -7 10 -13 0 -23 -4 -23
-10z"/>
<path d="M6228 5993 c7 -3 16 -2 19 1 4 3 -2 6 -13 5 -11 0 -14 -3 -6 -6z"/>
<path d="M2860 4920 c0 -5 5 -10 10 -10 6 0 10 5 10 10 0 6 -4 10 -10 10 -5 0
-10 -4 -10 -10z"/>
<path d="M2312 4294 c8 -7 177 -8 185 0 4 3 -38 6 -92 6 -54 0 -96 -3 -93 -6z"/>
<path d="M2598 4273 c12 -2 30 -2 40 0 9 3 -1 5 -23 4 -22 0 -30 -2 -17 -4z"/>
<path d="M2718 4253 c7 -3 16 -2 19 1 4 3 -2 6 -13 5 -11 0 -14 -3 -6 -6z"/>
<path d="M2863 4223 c9 -2 23 -2 30 0 6 3 -1 5 -18 5 -16 0 -22 -2 -12 -5z"/>
<path d="M2938 4203 c7 -3 16 -2 19 1 4 3 -2 6 -13 5 -11 0 -14 -3 -6 -6z"/>
<path d="M3058 4173 c7 -3 16 -2 19 1 4 3 -2 6 -13 5 -11 0 -14 -3 -6 -6z"/>
<path d="M3258 4103 c7 -3 16 -2 19 1 4 3 -2 6 -13 5 -11 0 -14 -3 -6 -6z"/>
<path d="M3368 4053 c6 -2 18 -2 25 0 6 3 1 5 -13 5 -14 0 -19 -2 -12 -5z"/>
<path d="M14206 1635 c-3 -8 -1 -15 4 -15 6 0 10 7 10 15 0 8 -2 15 -4 15 -2
0 -6 -7 -10 -15z"/>
<path d="M12890 949 c0 -5 5 -7 10 -4 6 3 10 8 10 11 0 2 -4 4 -10 4 -5 0 -10
-5 -10 -11z"/>
</g>
</svg>
